<mxfile host="app.diagrams.net" agent="Mozilla/5.0 (Windows NT 10.0; Win64; x64) AppleWebKit/537.36 (KHTML, like Gecko) Chrome/131.0.0.0 Safari/537.36" version="25.0.3">
  <diagram name="Página-1" id="Xt6sX6qnenYvIBqVHqvu">
    <mxGraphModel>
      <root>
        <mxCell id="0" />
        <mxCell id="1" parent="0" />
        <mxCell id="2" value="Gerenciamento de Autenticação e Permissões" style="whiteSpace=wrap;strokeWidth=2;" vertex="1" parent="1">
          <mxGeometry x="417" y="19" width="328" height="296" as="geometry" />
        </mxCell>
        <mxCell id="3" value="Processo de Catalogação" style="whiteSpace=wrap;strokeWidth=2;verticalAlign=top;" vertex="1" parent="1">
          <mxGeometry x="108" y="8" width="184" height="355" as="geometry" />
        </mxCell>
        <mxCell id="4" value="Catalogador" style="ellipse;aspect=fixed;strokeWidth=2;whiteSpace=wrap;" vertex="1" parent="3">
          <mxGeometry x="43" y="46" width="102" height="102" as="geometry" />
        </mxCell>
        <mxCell id="5" value="Catalogação" style="ellipse;aspect=fixed;strokeWidth=2;whiteSpace=wrap;" vertex="1" parent="3">
          <mxGeometry x="43" y="223" width="103" height="103" as="geometry" />
        </mxCell>
        <mxCell id="6" value="" style="curved=1;startArrow=none;endArrow=block;exitX=0.5;exitY=1;entryX=0.5;entryY=0;" edge="1" parent="3" source="4" target="5">
          <mxGeometry relative="1" as="geometry">
            <Array as="points" />
          </mxGeometry>
        </mxCell>
        <mxCell id="7" value="Serviços de Biblioteca" style="whiteSpace=wrap;strokeWidth=2;" vertex="1" parent="1">
          <mxGeometry x="414" y="335" width="165" height="431" as="geometry" />
        </mxCell>
        <mxCell id="8" value="Gerenciamento de recursos" style="whiteSpace=wrap;strokeWidth=2;verticalAlign=top;" vertex="1" parent="1">
          <mxGeometry x="33" y="413" width="334" height="339" as="geometry" />
        </mxCell>
        <mxCell id="9" value="Livro" style="ellipse;aspect=fixed;strokeWidth=2;whiteSpace=wrap;" vertex="1" parent="8">
          <mxGeometry x="43" y="53" width="51" height="51" as="geometry" />
        </mxCell>
        <mxCell id="10" value="Item do Acervo" style="ellipse;aspect=fixed;strokeWidth=2;whiteSpace=wrap;" vertex="1" parent="8">
          <mxGeometry x="115" y="187" width="123" height="123" as="geometry" />
        </mxCell>
        <mxCell id="11" value="Revista" style="ellipse;aspect=fixed;strokeWidth=2;whiteSpace=wrap;" vertex="1" parent="8">
          <mxGeometry x="144" y="46" width="66" height="66" as="geometry" />
        </mxCell>
        <mxCell id="12" value="Tese" style="ellipse;aspect=fixed;strokeWidth=2;whiteSpace=wrap;" vertex="1" parent="8">
          <mxGeometry x="260" y="55" width="47" height="47" as="geometry" />
        </mxCell>
        <mxCell id="13" value="" style="curved=1;startArrow=none;endArrow=block;exitX=0.5;exitY=1;entryX=0;entryY=0.04;" edge="1" parent="8" source="9" target="10">
          <mxGeometry relative="1" as="geometry">
            <Array as="points">
              <mxPoint x="68" y="149" />
            </Array>
          </mxGeometry>
        </mxCell>
        <mxCell id="14" value="" style="curved=1;startArrow=none;endArrow=block;exitX=0.49;exitY=0.99;entryX=0.5;entryY=0;" edge="1" parent="8" source="11" target="10">
          <mxGeometry relative="1" as="geometry">
            <Array as="points" />
          </mxGeometry>
        </mxCell>
        <mxCell id="15" value="" style="curved=1;startArrow=none;endArrow=block;exitX=0.49;exitY=1;entryX=1;entryY=0.03;" edge="1" parent="8" source="12" target="10">
          <mxGeometry relative="1" as="geometry">
            <Array as="points">
              <mxPoint x="283" y="149" />
            </Array>
          </mxGeometry>
        </mxCell>
        <mxCell id="16" value="Integração com o sistema acadêmico" style="whiteSpace=wrap;strokeWidth=2;" vertex="1" parent="1">
          <mxGeometry x="8" y="787" width="569" height="306" as="geometry" />
        </mxCell>
        <mxCell id="17" value="Usuário" style="ellipse;aspect=fixed;strokeWidth=2;whiteSpace=wrap;" vertex="1" parent="1">
          <mxGeometry x="166" y="833" width="69" height="69" as="geometry" />
        </mxCell>
        <mxCell id="18" value="Bibliotecário" style="ellipse;aspect=fixed;strokeWidth=2;whiteSpace=wrap;" vertex="1" parent="1">
          <mxGeometry x="147" y="951" width="106" height="106" as="geometry" />
        </mxCell>
        <mxCell id="19" value="Sistema&#xa; Acadêmico" style="ellipse;aspect=fixed;strokeWidth=2;whiteSpace=wrap;" vertex="1" parent="1">
          <mxGeometry x="450" y="957" width="94" height="94" as="geometry" />
        </mxCell>
        <mxCell id="20" value="Empréstimo" style="ellipse;aspect=fixed;strokeWidth=2;whiteSpace=wrap;" vertex="1" parent="1">
          <mxGeometry x="447" y="370" width="100" height="100" as="geometry" />
        </mxCell>
        <mxCell id="21" value="Reserva" style="ellipse;aspect=fixed;strokeWidth=2;whiteSpace=wrap;" vertex="1" parent="1">
          <mxGeometry x="462" y="521" width="70" height="70" as="geometry" />
        </mxCell>
        <mxCell id="22" value="Renovação" style="ellipse;aspect=fixed;strokeWidth=2;whiteSpace=wrap;" vertex="1" parent="1">
          <mxGeometry x="451" y="641" width="91" height="91" as="geometry" />
        </mxCell>
        <mxCell id="23" value="Autenticação" style="ellipse;aspect=fixed;strokeWidth=2;whiteSpace=wrap;" vertex="1" parent="1">
          <mxGeometry x="442" y="95" width="110" height="110" as="geometry" />
        </mxCell>
        <mxCell id="24" value="Permissões" style="ellipse;aspect=fixed;strokeWidth=2;whiteSpace=wrap;" vertex="1" parent="1">
          <mxGeometry x="627" y="59" width="93" height="93" as="geometry" />
        </mxCell>
        <mxCell id="25" value="Logs de&#xa; Acesso" style="ellipse;aspect=fixed;strokeWidth=2;whiteSpace=wrap;" vertex="1" parent="1">
          <mxGeometry x="639" y="201" width="69" height="69" as="geometry" />
        </mxCell>
        <mxCell id="26" value="" style="curved=1;startArrow=none;endArrow=block;exitX=0.99;exitY=0.69;entryX=0;entryY=0.14;" edge="1" parent="1" source="17" target="19">
          <mxGeometry relative="1" as="geometry">
            <Array as="points">
              <mxPoint x="392" y="946" />
              <mxPoint x="417" y="946" />
            </Array>
          </mxGeometry>
        </mxCell>
        <mxCell id="27" value="" style="curved=1;startArrow=none;endArrow=block;exitX=1;exitY=0.5;entryX=0;entryY=0.5;" edge="1" parent="1" source="18" target="19">
          <mxGeometry relative="1" as="geometry">
            <Array as="points" />
          </mxGeometry>
        </mxCell>
        <mxCell id="28" value="" style="curved=1;startArrow=none;endArrow=block;exitX=0.99;exitY=0.44;entryX=0.4;entryY=1.01;" edge="1" parent="1" source="17" target="20">
          <mxGeometry relative="1" as="geometry">
            <Array as="points">
              <mxPoint x="392" y="847" />
              <mxPoint x="417" y="847" />
            </Array>
          </mxGeometry>
        </mxCell>
        <mxCell id="29" value="" style="curved=1;startArrow=none;endArrow=block;exitX=0.99;exitY=0.49;entryX=0.37;entryY=1;" edge="1" parent="1" source="17" target="21">
          <mxGeometry relative="1" as="geometry">
            <Array as="points">
              <mxPoint x="417" y="867" />
            </Array>
          </mxGeometry>
        </mxCell>
        <mxCell id="30" value="" style="curved=1;startArrow=none;endArrow=block;exitX=0.99;exitY=0.64;entryX=0.33;entryY=1;" edge="1" parent="1" source="17" target="22">
          <mxGeometry relative="1" as="geometry">
            <Array as="points">
              <mxPoint x="392" y="926" />
              <mxPoint x="417" y="926" />
            </Array>
          </mxGeometry>
        </mxCell>
        <mxCell id="31" value="" style="curved=1;startArrow=none;endArrow=block;exitX=0.99;exitY=0.33;entryX=0.44;entryY=1;" edge="1" parent="1" source="17" target="23">
          <mxGeometry relative="1" as="geometry">
            <Array as="points">
              <mxPoint x="392" y="807" />
              <mxPoint x="417" y="807" />
            </Array>
          </mxGeometry>
        </mxCell>
        <mxCell id="32" value="" style="curved=1;startArrow=none;endArrow=block;exitX=1;exitY=0.04;entryX=0.44;entryY=1;" edge="1" parent="1" source="18" target="23">
          <mxGeometry relative="1" as="geometry">
            <Array as="points">
              <mxPoint x="392" y="827" />
              <mxPoint x="417" y="827" />
            </Array>
          </mxGeometry>
        </mxCell>
        <mxCell id="33" value="" style="curved=1;startArrow=none;endArrow=block;exitX=1;exitY=0.22;entryX=0;entryY=0.49;" edge="1" parent="1" source="23" target="24">
          <mxGeometry relative="1" as="geometry">
            <Array as="points">
              <mxPoint x="577" y="105" />
            </Array>
          </mxGeometry>
        </mxCell>
        <mxCell id="34" value="" style="curved=1;startArrow=none;endArrow=block;exitX=0.97;exitY=1;entryX=0;entryY=0.5;" edge="1" parent="1" source="23" target="25">
          <mxGeometry relative="1" as="geometry">
            <Array as="points">
              <mxPoint x="577" y="236" />
            </Array>
          </mxGeometry>
        </mxCell>
      </root>
    </mxGraphModel>
  </diagram>
</mxfile>
